<svg width="151" height="30" viewBox="0 0 151 30" fill="none" xmlns="http://www.w3.org/2000/svg">
<path d="M35.1359 22H32.4211L37.4016 7.85938H40.5266L45.5266 22H42.8117L41.6398 18.5039H36.3078L35.1359 22ZM36.9914 16.4531H40.9562L39.0227 10.75H38.9055L36.9914 16.4531ZM47.568 22L44.5602 11.3945H47.0992L48.9742 18.8555H49.0719L50.9664 11.3945H53.4859L55.4 18.8164H55.4977L57.3531 11.3945H59.8922L56.8844 22H54.2867L52.2945 14.8125H52.1578L50.1656 22H47.568ZM65.4883 22.2148C62.2852 22.2148 60.332 20.0859 60.332 16.7656C60.332 13.4844 62.3242 11.2578 65.3516 11.2578C67.9492 11.2578 70.1953 12.8789 70.1953 16.6094V17.3906H62.793C62.8223 19.1973 63.8867 20.2617 65.5078 20.2617C66.6016 20.2617 67.3438 19.793 67.6562 19.168H70.0977C69.6484 21.0039 67.9492 22.2148 65.4883 22.2148ZM62.8125 15.6914H67.8125C67.793 14.2461 66.8359 13.1914 65.3906 13.1914C63.8867 13.1914 62.8906 14.334 62.8125 15.6914ZM77.7445 14.4219C77.5883 13.6211 76.9242 13.1133 75.8695 13.1133C74.7953 13.1133 74.0141 13.6406 74.0336 14.3633C74.0141 14.9102 74.4633 15.3203 75.5375 15.5742L77.3344 15.9453C79.3461 16.3945 80.3031 17.3125 80.3227 18.8359C80.3031 20.8281 78.5648 22.2148 75.7914 22.2148C73.0961 22.2148 71.4945 21.0039 71.2406 18.9727H73.7797C73.9359 19.8711 74.6391 20.3203 75.7914 20.3203C76.9828 20.3203 77.7836 19.832 77.7836 19.0508C77.7836 18.4453 77.2953 18.0547 76.2406 17.8203L74.5414 17.4492C72.5687 17.0586 71.5531 16.0234 71.5531 14.5C71.5531 12.5469 73.2328 11.2578 75.8305 11.2578C78.3695 11.2578 79.932 12.4883 80.1078 14.4219H77.7445ZM86.4461 22.2148C83.3602 22.2148 81.368 20.0273 81.368 16.7461C81.368 13.4453 83.3602 11.2578 86.4461 11.2578C89.5516 11.2578 91.5242 13.4453 91.5242 16.7461C91.5242 20.0273 89.5516 22.2148 86.4461 22.2148ZM86.4656 20.2227C88.1648 20.2227 89.0047 18.6797 89.0047 16.7266C89.0047 14.793 88.1648 13.2305 86.4656 13.2305C84.7273 13.2305 83.8875 14.793 83.8875 16.7266C83.8875 18.6797 84.7273 20.2227 86.4656 20.2227ZM93.0578 22V11.3945H95.4406V13.1914H95.5773C96.007 11.9805 97.0812 11.2578 98.4875 11.2578C99.9328 11.2578 100.948 11.9805 101.359 13.1914H101.476C101.945 12.0195 103.116 11.2578 104.659 11.2578C106.593 11.2578 107.96 12.5078 107.96 14.8711V22H105.48V15.2617C105.48 13.9336 104.679 13.3477 103.663 13.3477C102.433 13.3477 101.73 14.1875 101.73 15.3789V22H99.3078V15.1641C99.3078 14.0703 98.5656 13.3477 97.5109 13.3477C96.4367 13.3477 95.5578 14.2266 95.5578 15.5547V22H93.0578ZM114.65 22.2148C111.447 22.2148 109.494 20.0859 109.494 16.7656C109.494 13.4844 111.486 11.2578 114.513 11.2578C117.111 11.2578 119.357 12.8789 119.357 16.6094V17.3906H111.955C111.984 19.1973 113.048 20.2617 114.67 20.2617C115.763 20.2617 116.505 19.793 116.818 19.168H119.259C118.81 21.0039 117.111 22.2148 114.65 22.2148ZM111.974 15.6914H116.974C116.955 14.2461 115.998 13.1914 114.552 13.1914C113.048 13.1914 112.052 14.334 111.974 15.6914ZM134.28 7.85938H136.838V17.0977C136.838 20.125 134.534 22.2148 131.096 22.2148C127.639 22.2148 125.354 20.125 125.354 17.0977V7.85938H127.893V16.8828C127.893 18.6602 129.143 19.9492 131.096 19.9492C133.049 19.9492 134.28 18.6602 134.28 16.8828V7.85938ZM141.184 7.85938L144.29 13.0547H144.407L147.552 7.85938H150.442L146.087 14.9297L150.52 22H147.571L144.407 16.8438H144.29L141.126 22H138.196L142.669 14.9297L138.255 7.85938H141.184Z" fill="#1490EF"/>
<path d="M1.27719 14.7861C0.932957 14.6571 0.605282 14.8169 0.43812 15.1302C0.266003 15.4527 0.330547 15.7752 0.631752 15.9687L11.9837 21.5664C12.2849 21.6954 12.6721 21.7384 13.0594 21.5234L24.3335 16.0678C24.6206 15.9472 24.7597 15.4779 24.4933 15.0488C24.2803 14.7056 23.8891 14.6571 23.6309 14.7646L12.9088 19.8893C12.5645 20.0398 12.2849 20.0398 11.9837 19.8893L1.27719 14.7861Z" fill="#1490EF"/>
<path d="M1.32022 20.1122C0.975987 19.9832 0.648312 20.143 0.48115 20.4562C0.309033 20.7788 0.373577 21.1013 0.674782 21.2948L12.0267 26.8925C12.3279 27.0215 12.7151 27.0645 13.1024 26.8495L24.3766 21.3939C24.6636 21.2733 24.8027 20.8039 24.5364 20.3749C24.3233 20.0317 23.9321 19.9832 23.6739 20.0907L12.9518 25.2154C12.6076 25.3659 12.3279 25.3659 12.0267 25.2154L1.32022 20.1122Z" fill="#1490EF"/>
<path d="M11.574 4.18951L0.494128 9.49869C-0.400785 10.0135 0.121247 10.464 0.494128 10.6249C3.67249 12.1086 10.2743 15.2047 11.2544 15.7196C12.2345 16.2344 13.3319 15.9341 13.758 15.7196C16.8654 14.2001 23.3464 11.0432 24.4118 10.5713C25.4771 10.0993 24.8557 9.62382 24.4118 9.44506C21.0913 7.83622 14.2587 4.53273 13.4917 4.18951C12.7246 3.84629 11.8936 4.0465 11.574 4.18951Z" fill="url(#paint0_linear_48_54017)"/>
<defs>
<linearGradient id="paint0_linear_48_54017" x1="12.5" y1="16.0038" x2="12.5" y2="4" gradientUnits="userSpaceOnUse">
<stop stop-color="#1490EF"/>
<stop offset="1" stop-color="#6DBFFF"/>
</linearGradient>
</defs>
</svg>
