<svg xmlns="http://www.w3.org/2000/svg" viewBox="0 0 286.8 70.17"><defs><style>.cls-1{fill:#1490ef;}</style></defs><g id="Layer_2" data-name="Layer 2"><g id="Layer_1-2" data-name="Layer 1"><path class="cls-1" d="M23.5,0,36.86,37.27v.46H28.21l-3-9H11.47l-2.93,9H0v-.46L13.36,0ZM13.64,22.07h9.41L18.29,7.69Z"/><path class="cls-1" d="M75.33,11.53v.41l-7.4,25.79H60.71L57.1,25A46.9,46.9,0,0,1,56,20.21,30,30,0,0,1,55,25L51.65,37.85H44.2L36.4,11.94v-.41h8.43l2.75,12.29a43.88,43.88,0,0,1,.75,4.83c.3-1.75.63-3.34,1-4.78l3.15-12.34h7.46l3.21,12q.63,2.75,1,5a48.52,48.52,0,0,1,.74-5l2.35-12Z"/><path class="cls-1" d="M100.27,26.32H83.75a7.06,7.06,0,0,0,2.13,4.8,6.23,6.23,0,0,0,4.24,1.55,12.06,12.06,0,0,0,3.55-.53,16.6,16.6,0,0,0,3.67-1.69L100,35.23a15.75,15.75,0,0,1-4.76,2.44,18.68,18.68,0,0,1-5.85.88,16,16,0,0,1-6.79-1.4,10.84,10.84,0,0,1-4.82-4.46A15.36,15.36,0,0,1,76,24.8a17.53,17.53,0,0,1,1.52-7.62,10.66,10.66,0,0,1,4.41-4.86,13.52,13.52,0,0,1,6.85-1.66,12.87,12.87,0,0,1,6.45,1.51,9.74,9.74,0,0,1,4,4.13,13.17,13.17,0,0,1,1.31,5.94C100.49,23,100.42,24.38,100.27,26.32ZM85.61,17.26A7.48,7.48,0,0,0,84,21.2h8.78V21a5.46,5.46,0,0,0-1.11-3.84A3.82,3.82,0,0,0,88.73,16,4.11,4.11,0,0,0,85.61,17.26Z"/><path class="cls-1" d="M106.94,37.64a18.91,18.91,0,0,1-5.41-2.7l3.28-5.07a14,14,0,0,0,4.31,2.24,14.24,14.24,0,0,0,4.2.67,5.18,5.18,0,0,0,2.79-.58,1.78,1.78,0,0,0,.89-1.57,1.94,1.94,0,0,0-.34-1.14,3.54,3.54,0,0,0-1.41-1,22.34,22.34,0,0,0-3.14-1.08L110.44,27a13.28,13.28,0,0,1-6-3,6.94,6.94,0,0,1-1.82-5.06A7.26,7.26,0,0,1,104,14.56a8.5,8.5,0,0,1,3.73-2.89,14.16,14.16,0,0,1,5.5-1,20.27,20.27,0,0,1,10.61,2.85l-3,5.06a23.6,23.6,0,0,0-4-1.68,12.67,12.67,0,0,0-3.48-.47,3.71,3.71,0,0,0-2.18.52,1.59,1.59,0,0,0-.73,1.34,1.54,1.54,0,0,0,.29,1,2.5,2.5,0,0,0,1.07.7,23.17,23.17,0,0,0,2.47.79l1.92.52a14.09,14.09,0,0,1,6.52,3.26,7.24,7.24,0,0,1,2.06,5.3,8.34,8.34,0,0,1-1.23,4.49,8.22,8.22,0,0,1-3.78,3.11,15.22,15.22,0,0,1-6.22,1.14A21.78,21.78,0,0,1,106.94,37.64Z"/><path class="cls-1" d="M132.34,36.68a11.58,11.58,0,0,1-4.5-5,16.39,16.39,0,0,1-1.49-7.08,15.14,15.14,0,0,1,1.92-8.09A11.13,11.13,0,0,1,133.34,12a17.56,17.56,0,0,1,7-1.36,14.31,14.31,0,0,1,7.37,1.77,11.15,11.15,0,0,1,4.5,4.92,16.87,16.87,0,0,1,1.49,7.28,15.34,15.34,0,0,1-1.86,8,11,11,0,0,1-5,4.54,17.41,17.41,0,0,1-7.19,1.43A13.65,13.65,0,0,1,132.34,36.68Zm12.12-6.2a11.79,11.79,0,0,0,1.26-5.91,10.92,10.92,0,0,0-1.35-6,4.67,4.67,0,0,0-4.18-2,5,5,0,0,0-4.43,2q-1.39,2-1.39,6a10.65,10.65,0,0,0,1.42,5.94,4.77,4.77,0,0,0,4.29,2.16A4.65,4.65,0,0,0,144.46,30.48Z"/><path class="cls-1" d="M194.7,12.66a8,8,0,0,1,1.93,5.8V37.73h-7.74V20.85a5.94,5.94,0,0,0-.67-3.29,2.53,2.53,0,0,0-2.24-1,10.5,10.5,0,0,0-5,1.69V37.73h-7.74V20.85a6,6,0,0,0-.66-3.29,2.54,2.54,0,0,0-2.23-1,9.93,9.93,0,0,0-5,1.69V37.73h-7.74v-26l7.74-.75v2.27a14.87,14.87,0,0,1,8.2-2.56c2.9,0,5,1,6.25,2.91a22.45,22.45,0,0,1,4.6-2.16,15.26,15.26,0,0,1,4.77-.75A7.35,7.35,0,0,1,194.7,12.66Z"/><path class="cls-1" d="M224.49,26.32H208a7.1,7.1,0,0,0,2.12,4.8,6.26,6.26,0,0,0,4.24,1.55,12.13,12.13,0,0,0,3.56-.53,16.6,16.6,0,0,0,3.67-1.69l2.63,4.78a15.69,15.69,0,0,1-4.75,2.44,18.68,18.68,0,0,1-5.85.88,15.94,15.94,0,0,1-6.79-1.4A10.78,10.78,0,0,1,202,32.69a15.36,15.36,0,0,1-1.81-7.89,17.67,17.67,0,0,1,1.52-7.62,10.73,10.73,0,0,1,4.42-4.86A13.5,13.5,0,0,1,213,10.66a12.87,12.87,0,0,1,6.45,1.51,9.77,9.77,0,0,1,4,4.13,13,13,0,0,1,1.32,5.94C224.72,23,224.64,24.38,224.49,26.32Zm-14.65-9.06a7.4,7.4,0,0,0-1.63,3.94H217V21a5.51,5.51,0,0,0-1.1-3.84A3.84,3.84,0,0,0,213,16,4.11,4.11,0,0,0,209.84,17.26Z"/><path class="cls-1" d="M246.73,36.42a12.62,12.62,0,0,1-5.24-5.76,20.06,20.06,0,0,1-1.64-8.3V0h7.91V21.37q0,4.89,2,7.6c1.29,1.8,3.55,2.71,6.77,2.71,3.07,0,5.23-.91,6.48-2.71a12,12,0,0,0,1.89-7V0h7.91V22.18a18.15,18.15,0,0,1-2.18,9.41,12.89,12.89,0,0,1-5.93,5.3A21.45,21.45,0,0,1,256,38.55,18,18,0,0,1,246.73,36.42Z"/><path class="cls-1" d="M278.89,37.73V0h7.91V37.73Z"/><path class="cls-1" d="M41.6,49.64l6.85,15.81v.14h-2.7L43.84,61H36.08l-1.89,4.55h-2.6v-.14l6.86-15.81Zm-4.73,9.53h6.19L40,51.79Z"/><path class="cls-1" d="M66.69,54.81V55L63,65.59H60.55L58.3,59c-.3-.92-.49-1.57-.59-2-.07.36-.26,1-.56,2L54.9,65.59H52.62L48.57,55v-.15h2.64l2.22,6.77c.1.28.24.78.43,1.5a10.8,10.8,0,0,1,.39-1.5l2.25-6.77h2.65l2.25,6.77c.15.46.31,1.05.48,1.75.13-.69.26-1.27.39-1.75l2.06-6.77Z"/><path class="cls-1" d="M78.34,60.57H69.76a3.42,3.42,0,0,0,1,2.69,3.94,3.94,0,0,0,2.58.83,7.15,7.15,0,0,0,2-.24,11.41,11.41,0,0,0,1.84-.77l.93,1.5a9.6,9.6,0,0,1-4.84,1.31,6.61,6.61,0,0,1-4.32-1.32,5.05,5.05,0,0,1-1.62-4.17A6.4,6.4,0,0,1,68,57.45a5.11,5.11,0,0,1,2-2.13,6.19,6.19,0,0,1,3.27-.8,6.12,6.12,0,0,1,2.79.58,4.08,4.08,0,0,1,1.75,1.58A4.57,4.57,0,0,1,78.4,59ZM71,56.93A3.72,3.72,0,0,0,69.9,59H76v-.1a2.75,2.75,0,0,0-.71-2.06,2.84,2.84,0,0,0-2-.69A3.25,3.25,0,0,0,71,56.93Z"/><path class="cls-1" d="M81.69,65.53a8.31,8.31,0,0,1-2.45-1.09l1.07-1.5a8,8,0,0,0,4.28,1.28,3.94,3.94,0,0,0,1.94-.39,1.21,1.21,0,0,0,.68-1.12,1.26,1.26,0,0,0-.61-1,6.47,6.47,0,0,0-2.12-.77l-.88-.2a7.27,7.27,0,0,1-2.88-1.17,2.34,2.34,0,0,1-.92-1.93A2.42,2.42,0,0,1,80.39,56,3.9,3.9,0,0,1,82,54.91a6.83,6.83,0,0,1,2.38-.39,10.77,10.77,0,0,1,2.43.26,10,10,0,0,1,2.38.87l-1,1.5a11.42,11.42,0,0,0-2-.75,7.46,7.46,0,0,0-1.8-.21,3,3,0,0,0-1.59.36,1.07,1.07,0,0,0-.58,1,.89.89,0,0,0,.46.8,6.39,6.39,0,0,0,1.62.55l.88.2a12.53,12.53,0,0,1,2.57.83A3.63,3.63,0,0,1,89.23,61a2.91,2.91,0,0,1-.13,3.3,3.69,3.69,0,0,1-1.7,1.17,7.83,7.83,0,0,1-2.73.42A11.37,11.37,0,0,1,81.69,65.53Z"/><path class="cls-1" d="M93.42,65.14a4.84,4.84,0,0,1-2-2,6.49,6.49,0,0,1-.64-2.92,5.78,5.78,0,0,1,.84-3.24,4.81,4.81,0,0,1,2.28-1.84,8.63,8.63,0,0,1,3.27-.58,6.59,6.59,0,0,1,3.29.75,4.81,4.81,0,0,1,2,2,6.35,6.35,0,0,1,.65,2.9,5.84,5.84,0,0,1-.85,3.27A4.81,4.81,0,0,1,100,65.31a8.54,8.54,0,0,1-3.26.58A6.63,6.63,0,0,1,93.42,65.14Zm7.15-5a4.37,4.37,0,0,0-.88-2.87A3.27,3.27,0,0,0,97,56.24a3.44,3.44,0,0,0-2.83,1,5.2,5.2,0,0,0,0,5.79,3.29,3.29,0,0,0,2.7,1.09Q100.57,64.17,100.57,60.18Z"/><path class="cls-1" d="M122.3,55.3a3.15,3.15,0,0,1,1,2.57v7.72h-2.42V58.73a4.08,4.08,0,0,0-.2-1.42,1.33,1.33,0,0,0-.62-.73,2.69,2.69,0,0,0-1.18-.22,7.55,7.55,0,0,0-1.72.21,9.85,9.85,0,0,0-1.69.56,6.64,6.64,0,0,1,.06.74v7.72h-2.42V58.73a4.41,4.41,0,0,0-.18-1.42,1.32,1.32,0,0,0-.61-.73,2.66,2.66,0,0,0-1.18-.22,7.06,7.06,0,0,0-1.66.21,11.93,11.93,0,0,0-1.66.53v8.49h-2.42V54.81l2.42-.24v1A9.41,9.41,0,0,1,112,54.52a3.34,3.34,0,0,1,2.93,1.2,12,12,0,0,1,2.29-.86,9.61,9.61,0,0,1,2.52-.34A3.93,3.93,0,0,1,122.3,55.3Z"/><path class="cls-1" d="M136.4,60.57h-8.58a3.39,3.39,0,0,0,1,2.69,3.94,3.94,0,0,0,2.58.83,7,7,0,0,0,2-.24,11.12,11.12,0,0,0,1.85-.77l.93,1.5a9.63,9.63,0,0,1-4.85,1.31A6.58,6.58,0,0,1,127,64.57a5.05,5.05,0,0,1-1.62-4.17,6.4,6.4,0,0,1,.67-2.95,5.15,5.15,0,0,1,2-2.13,6.25,6.25,0,0,1,3.28-.8,6.12,6.12,0,0,1,2.79.58,4,4,0,0,1,1.74,1.58,4.48,4.48,0,0,1,.6,2.32ZM129,56.93A3.72,3.72,0,0,0,128,59h6.13v-.1a2.72,2.72,0,0,0-.72-2.06,2.81,2.81,0,0,0-2-.69A3.25,3.25,0,0,0,129,56.93Z"/><path class="cls-1" d="M154.8,60.57h-8.58a3.39,3.39,0,0,0,1,2.69,3.89,3.89,0,0,0,2.57.83,7.1,7.1,0,0,0,2-.24,11,11,0,0,0,1.84-.77l.93,1.5a9.6,9.6,0,0,1-4.84,1.31,6.63,6.63,0,0,1-4.32-1.32,5.05,5.05,0,0,1-1.62-4.17,6.41,6.41,0,0,1,.68-2.95,5.15,5.15,0,0,1,2-2.13,6.21,6.21,0,0,1,3.28-.8,6.07,6.07,0,0,1,2.78.58,4,4,0,0,1,1.75,1.58,4.57,4.57,0,0,1,.59,2.32Zm-7.35-3.64A3.67,3.67,0,0,0,146.36,59h6.14v-.1a2.72,2.72,0,0,0-.72-2.06,2.83,2.83,0,0,0-2-.69A3.23,3.23,0,0,0,147.45,56.93Z"/><path class="cls-1" d="M162.91,60l4.39,5.42v.14h-2.79l-3.12-4.16L158,65.59h-2.53v-.14l4.42-5.39L155.7,55v-.15h2.76l3,3.84,3-3.84H167V55Z"/><path class="cls-1" d="M178.13,55.26a4.45,4.45,0,0,1,1.71,2,6.67,6.67,0,0,1,.55,2.69,6,6,0,0,1-.83,3.22,5.38,5.38,0,0,1-2.27,2.06,7.3,7.3,0,0,1-3.26.7,11.3,11.3,0,0,1-2.68-.32v4.6h-2.42V54.81l2.42-.24v1a10.75,10.75,0,0,1,2-.75,7.19,7.19,0,0,1,1.88-.26A5.17,5.17,0,0,1,178.13,55.26Zm-2.26,8.5a3.31,3.31,0,0,0,1.41-1.41A5.06,5.06,0,0,0,177.8,60a3.84,3.84,0,0,0-.85-2.74,3.14,3.14,0,0,0-2.39-.88,7,7,0,0,0-3.21.81v6.7a9.5,9.5,0,0,0,2.48.37A4.44,4.44,0,0,0,175.87,63.76Z"/><path class="cls-1" d="M192.69,60.57H184.1a3.39,3.39,0,0,0,1,2.69,3.89,3.89,0,0,0,2.57.83,7.1,7.1,0,0,0,2-.24,11,11,0,0,0,1.84-.77l.93,1.5a9.6,9.6,0,0,1-4.84,1.31,6.63,6.63,0,0,1-4.32-1.32,5.05,5.05,0,0,1-1.62-4.17,6.41,6.41,0,0,1,.68-2.95,5.15,5.15,0,0,1,2-2.13,6.23,6.23,0,0,1,3.28-.8,6.12,6.12,0,0,1,2.79.58,4.06,4.06,0,0,1,1.74,1.58,4.57,4.57,0,0,1,.59,2.32Zm-7.36-3.64A3.67,3.67,0,0,0,184.24,59h6.14v-.1a2.72,2.72,0,0,0-.72-2.06,2.83,2.83,0,0,0-2-.69A3.23,3.23,0,0,0,185.33,56.93Z"/><path class="cls-1" d="M201.89,54.57c.26,0,.54.08.84.14l-.45,2.2a5.89,5.89,0,0,0-1.74-.3,3.52,3.52,0,0,0-3.13,1.65v7.33H195V54.79l2.42-.22v1.55a4.72,4.72,0,0,1,1.63-1.2,4.9,4.9,0,0,1,2-.4A5.91,5.91,0,0,1,201.89,54.57Z"/><path class="cls-1" d="M204.76,52.41a1.69,1.69,0,0,1-.63-.55,1.21,1.21,0,0,1-.24-.74,1.23,1.23,0,0,1,.24-.76,1.71,1.71,0,0,1,.63-.56,1.74,1.74,0,0,1,.84-.21,1.81,1.81,0,0,1,.87.21,1.75,1.75,0,0,1,.64.56,1.29,1.29,0,0,1,.24.76,1.28,1.28,0,0,1-.24.74,1.72,1.72,0,0,1-.64.55,1.81,1.81,0,0,1-.87.21A1.74,1.74,0,0,1,204.76,52.41Zm-.34,13.18V54.81l2.42-.24v11Z"/><path class="cls-1" d="M220.12,60.57h-8.58a3.39,3.39,0,0,0,1,2.69,3.89,3.89,0,0,0,2.57.83,7.15,7.15,0,0,0,2-.24,11,11,0,0,0,1.84-.77l.93,1.5A9.6,9.6,0,0,1,215,65.89a6.63,6.63,0,0,1-4.32-1.32,5.05,5.05,0,0,1-1.62-4.17,6.41,6.41,0,0,1,.68-2.95,5.15,5.15,0,0,1,2-2.13,6.21,6.21,0,0,1,3.28-.8,6.07,6.07,0,0,1,2.78.58,4,4,0,0,1,1.75,1.58,4.57,4.57,0,0,1,.59,2.32Zm-7.36-3.64A3.72,3.72,0,0,0,211.68,59h6.14v-.1a2.72,2.72,0,0,0-.72-2.06,2.83,2.83,0,0,0-2-.69A3.27,3.27,0,0,0,212.76,56.93Z"/><path class="cls-1" d="M233.13,57.94v7.65h-2.42V58.73a3.8,3.8,0,0,0-.22-1.42,1.32,1.32,0,0,0-.7-.73,3.46,3.46,0,0,0-1.34-.22,8.45,8.45,0,0,0-1.8.21,10.81,10.81,0,0,0-1.8.56v8.46h-2.42V54.81l2.42-.24v1a10.87,10.87,0,0,1,4.5-1.08Q233.13,54.52,233.13,57.94Z"/><path class="cls-1" d="M236.81,64.6a5,5,0,0,1-1.57-4.13,5.93,5.93,0,0,1,.9-3.38,5.3,5.3,0,0,1,2.32-2,7.55,7.55,0,0,1,3-.61,9.32,9.32,0,0,1,3.89.93l-.9,1.63a10.89,10.89,0,0,0-1.7-.59,6.12,6.12,0,0,0-1.48-.18,3.21,3.21,0,0,0-2.59,1.1,4.59,4.59,0,0,0-.93,3.06,3.53,3.53,0,0,0,.94,2.76,3.7,3.7,0,0,0,2.55.84,5.51,5.51,0,0,0,1.73-.26,11.57,11.57,0,0,0,1.7-.73l1,1.5a10.51,10.51,0,0,1-2.15,1,8,8,0,0,1-2.47.36A6.46,6.46,0,0,1,236.81,64.6Z"/><path class="cls-1" d="M257.36,60.57h-8.59a3.39,3.39,0,0,0,1,2.69,3.94,3.94,0,0,0,2.58.83,7,7,0,0,0,2-.24,11,11,0,0,0,1.84-.77l.93,1.5a9.57,9.57,0,0,1-4.84,1.31,6.63,6.63,0,0,1-4.32-1.32,5.05,5.05,0,0,1-1.61-4.17,6.4,6.4,0,0,1,.67-2.95,5.15,5.15,0,0,1,2-2.13,6.23,6.23,0,0,1,3.28-.8,6.12,6.12,0,0,1,2.79.58,4,4,0,0,1,1.74,1.58,4.47,4.47,0,0,1,.59,2.32ZM250,56.93A3.67,3.67,0,0,0,248.91,59h6.14v-.1a2.72,2.72,0,0,0-.72-2.06,2.83,2.83,0,0,0-2-.69A3.25,3.25,0,0,0,250,56.93Z"/></g></g></svg>